# Blender 3.4.1
# www.blender.org
mtllib klas.mtl
o Cube
v 0.127164 13.558077 -0.127164
v 0.127164 -0.015188 -0.127164
v 0.127164 13.558077 0.127164
v 0.127164 -0.015188 0.127164
v -0.127164 13.558077 -0.127164
v -0.127164 -0.015188 -0.127164
v -0.127164 13.558077 0.127164
v -0.127164 -0.015188 0.127164
v 0.127164 13.928092 0.127164
v -0.127164 13.928092 0.127164
v 0.127164 13.928092 -0.127164
v -0.127164 13.928092 -0.127164
v 0.127164 14.255756 0.127164
v -0.127164 14.255756 0.127164
v 0.127164 14.255756 -0.127164
v -0.127164 14.255756 -0.127164
v 0.127164 14.592705 0.127164
v -0.127164 14.592705 0.127164
v 0.127164 14.592705 -0.127164
v -0.127164 14.592705 -0.127164
v 0.127164 14.905271 0.127164
v -0.127164 14.905271 0.127164
v 0.127164 14.905271 -0.127164
v -0.127164 14.905271 -0.127164
v 0.127164 15.230390 0.127164
v -0.127164 15.230390 0.127164
v 0.127164 15.230390 -0.127164
v -0.127164 15.230390 -0.127164
v 0.127164 15.528118 0.127164
v -0.127164 15.528118 0.127164
v 0.127164 15.528118 -0.127164
v -0.127164 15.528118 -0.127164
v -0.482447 15.230390 -0.127164
v -0.482447 15.230390 0.127164
v -0.482447 15.528118 0.127164
v -0.482447 15.528118 -0.127164
v -0.127164 15.230390 0.482447
v 0.127164 15.230390 0.482447
v 0.127164 15.528118 0.482447
v -0.127164 15.528118 0.482447
v 0.127164 15.230390 -0.482447
v -0.127164 15.230390 -0.482447
v -0.127164 15.528118 -0.482447
v 0.127164 15.528118 -0.482447
v 0.482447 15.230390 0.127164
v 0.482447 15.230390 -0.127164
v 0.482447 15.528118 -0.127164
v 0.482447 15.528118 0.127164
v 0.127164 14.592705 -0.482447
v -0.127164 14.592705 -0.482447
v -0.127164 14.905271 -0.482447
v 0.127164 14.905271 -0.482447
v 0.482447 14.592705 0.127164
v 0.482447 14.592705 -0.127164
v 0.482447 14.905271 -0.127164
v 0.482447 14.905271 0.127164
v -0.482447 14.592705 -0.127164
v -0.482447 14.592705 0.127164
v -0.482447 14.905271 0.127164
v -0.482447 14.905271 -0.127164
v -0.127164 14.592705 0.482447
v 0.127164 14.592705 0.482447
v 0.127164 14.905271 0.482447
v -0.127164 14.905271 0.482447
v 0.127164 13.928092 -0.482447
v -0.127164 13.928092 -0.482447
v -0.127164 14.255756 -0.482447
v 0.127164 14.255756 -0.482447
v 0.482447 13.928092 0.127164
v 0.482447 13.928092 -0.127164
v 0.482447 14.255756 -0.127164
v 0.482447 14.255756 0.127164
v -0.482447 13.928092 -0.127164
v -0.482447 13.928092 0.127164
v -0.482447 14.255756 0.127164
v -0.482447 14.255756 -0.127164
v -0.127164 13.928092 0.482447
v 0.127164 13.928092 0.482447
v 0.127164 14.255756 0.482447
v -0.127164 14.255756 0.482447
v 0.127164 15.819129 0.127164
v -0.127164 15.819129 0.127164
v 0.127164 15.819129 -0.127164
v -0.127164 15.819129 -0.127164
v 0.127164 16.098701 0.127164
v -0.127164 16.098701 0.127164
v 0.127164 16.098701 -0.127164
v -0.127164 16.098701 -0.127164
v -0.482447 15.819129 -0.127164
v -0.482447 15.819129 0.127164
v -0.482447 16.098701 0.127164
v -0.482447 16.098701 -0.127164
v -0.127164 15.819129 0.482447
v 0.127164 15.819129 0.482447
v 0.127164 16.098701 0.482447
v -0.127164 16.098701 0.482447
v 0.127164 15.819129 -0.482447
v -0.127164 15.819129 -0.482447
v -0.127164 16.098701 -0.482447
v 0.127164 16.098701 -0.482447
v 0.482447 15.819129 0.127164
v 0.482447 15.819129 -0.127164
v 0.482447 16.098701 -0.127164
v 0.482447 16.098701 0.127164
v 0.127164 16.372032 0.127164
v -0.127164 16.372032 0.127164
v 0.127164 16.372032 -0.127164
v -0.127164 16.372032 -0.127164
vn -1.0000 -0.0000 -0.0000
vn -0.0000 -0.0000 1.0000
vn -0.0000 -1.0000 -0.0000
vn 1.0000 -0.0000 -0.0000
vn -0.0000 -0.0000 -1.0000
vn -0.0000 1.0000 -0.0000
vt 0.625000 0.500000
vt 0.375000 0.500000
vt 0.625000 0.750000
vt 0.375000 0.750000
vt 0.625000 0.250000
vt 0.125000 0.500000
vt 0.375000 0.250000
vt 0.625000 0.000000
vt 0.625000 1.000000
vt 0.375000 1.000000
vt 0.375000 0.000000
vt 0.125000 0.750000
vt 0.625000 0.750000
vt 0.625000 0.000000
vt 0.625000 1.000000
vt 0.625000 0.500000
vt 0.625000 0.250000
vt 0.625000 0.750000
vt 0.625000 0.000000
vt 0.625000 1.000000
vt 0.625000 0.500000
vt 0.625000 0.250000
vt 0.625000 0.750000
vt 0.625000 0.000000
vt 0.625000 1.000000
vt 0.625000 0.500000
vt 0.625000 0.250000
vt 0.625000 0.750000
vt 0.625000 0.000000
vt 0.625000 1.000000
vt 0.625000 0.500000
vt 0.625000 0.250000
vt 0.625000 0.750000
vt 0.625000 0.000000
vt 0.625000 1.000000
vt 0.625000 0.500000
vt 0.625000 0.250000
vt 0.625000 0.750000
vt 0.625000 0.000000
vt 0.625000 1.000000
vt 0.625000 0.500000
vt 0.625000 0.250000
vt 0.625000 0.250000
vt 0.625000 0.000000
vt 0.625000 0.000000
vt 0.625000 0.250000
vt 0.625000 1.000000
vt 0.625000 0.750000
vt 0.625000 0.750000
vt 0.625000 1.000000
vt 0.625000 0.500000
vt 0.625000 0.250000
vt 0.625000 0.250000
vt 0.625000 0.500000
vt 0.625000 0.750000
vt 0.625000 0.500000
vt 0.625000 0.500000
vt 0.625000 0.750000
vt 0.625000 0.500000
vt 0.625000 0.250000
vt 0.625000 0.250000
vt 0.625000 0.500000
vt 0.625000 0.750000
vt 0.625000 0.500000
vt 0.625000 0.500000
vt 0.625000 0.750000
vt 0.625000 0.250000
vt 0.625000 0.000000
vt 0.625000 0.000000
vt 0.625000 0.250000
vt 0.625000 1.000000
vt 0.625000 0.750000
vt 0.625000 0.750000
vt 0.625000 1.000000
vt 0.625000 0.500000
vt 0.625000 0.250000
vt 0.625000 0.250000
vt 0.625000 0.500000
vt 0.625000 0.750000
vt 0.625000 0.500000
vt 0.625000 0.500000
vt 0.625000 0.750000
vt 0.625000 0.250000
vt 0.625000 0.000000
vt 0.625000 0.000000
vt 0.625000 0.250000
vt 0.625000 1.000000
vt 0.625000 0.750000
vt 0.625000 0.750000
vt 0.625000 1.000000
vt 0.625000 0.750000
vt 0.625000 0.000000
vt 0.625000 1.000000
vt 0.625000 0.500000
vt 0.625000 0.250000
vt 0.625000 0.750000
vt 0.625000 0.000000
vt 0.625000 1.000000
vt 0.625000 0.500000
vt 0.625000 0.250000
vt 0.625000 0.250000
vt 0.625000 0.000000
vt 0.625000 0.000000
vt 0.625000 0.250000
vt 0.625000 1.000000
vt 0.625000 0.750000
vt 0.625000 0.750000
vt 0.625000 1.000000
vt 0.625000 0.500000
vt 0.625000 0.250000
vt 0.625000 0.250000
vt 0.625000 0.500000
vt 0.625000 0.750000
vt 0.625000 0.500000
vt 0.625000 0.500000
vt 0.625000 0.750000
vt 0.625000 0.750000
vt 0.875000 0.750000
vt 0.625000 0.000000
vt 0.625000 1.000000
vt 0.625000 0.500000
vt 0.875000 0.500000
vt 0.625000 0.250000
s 0
usemtl Material
f 5/5/1 7/8/1 10/14/1 12/17/1
f 4/4/2 3/3/2 7/9/2 8/10/2
f 8/11/1 7/8/1 5/5/1 6/7/1
f 6/6/3 2/2/3 4/4/3 8/12/3
f 2/2/4 1/1/4 3/3/4 4/4/4
f 6/7/5 5/5/5 1/1/5 2/2/5
f 30/40/2 29/38/2 81/91/2 82/93/2
f 3/3/4 1/1/4 11/16/4 9/13/4
f 1/1/5 5/5/5 12/17/5 11/16/5
f 7/9/2 3/3/2 9/13/2 10/15/2
f 16/22/1 14/19/1 18/24/1 20/27/1
f 32/42/1 30/39/1 82/92/1 84/95/1
f 29/38/4 31/41/4 83/94/4 81/91/4
f 15/21/6 68/78/6 67/77/6 16/22/6
f 14/20/2 13/18/2 17/23/2 18/25/2
f 15/21/5 16/22/5 20/27/5 19/26/5
f 13/18/4 15/21/4 19/26/4 17/23/4
f 21/28/4 23/31/4 27/36/4 25/33/4
f 16/22/1 67/77/1 66/76/1 12/17/1
f 12/17/3 66/76/3 65/75/3 11/16/3
f 65/75/5 66/76/5 67/77/5 68/78/5
f 23/31/6 52/62/6 51/61/6 24/32/6
f 24/32/1 22/29/1 26/34/1 28/37/1
f 22/30/2 21/28/2 25/33/2 26/35/2
f 23/31/5 24/32/5 28/37/5 27/36/5
f 31/41/5 32/42/5 84/95/5 83/94/5
f 24/32/1 51/61/1 50/60/1 20/27/1
f 20/27/3 50/60/3 49/59/3 19/26/3
f 49/59/5 50/60/5 51/61/5 52/62/5
f 33/43/1 34/44/1 35/45/1 36/46/1
f 26/34/3 34/44/3 33/43/3 28/37/3
f 30/39/2 35/45/2 34/44/2 26/34/2
f 32/42/6 36/46/6 35/45/6 30/39/6
f 28/37/5 33/43/5 36/46/5 32/42/5
f 37/47/2 38/48/2 39/49/2 40/50/2
f 25/33/3 38/48/3 37/47/3 26/35/3
f 29/38/4 39/49/4 38/48/4 25/33/4
f 30/40/6 40/50/6 39/49/6 29/38/6
f 26/35/1 37/47/1 40/50/1 30/40/1
f 41/51/5 42/52/5 43/53/5 44/54/5
f 28/37/3 42/52/3 41/51/3 27/36/3
f 32/42/1 43/53/1 42/52/1 28/37/1
f 31/41/6 44/54/6 43/53/6 32/42/6
f 27/36/4 41/51/4 44/54/4 31/41/4
f 45/55/4 46/56/4 47/57/4 48/58/4
f 27/36/3 46/56/3 45/55/3 25/33/3
f 31/41/5 47/57/5 46/56/5 27/36/5
f 29/38/6 48/58/6 47/57/6 31/41/6
f 25/33/2 45/55/2 48/58/2 29/38/2
f 19/26/4 49/59/4 52/62/4 23/31/4
f 53/63/4 54/64/4 55/65/4 56/66/4
f 19/26/3 54/64/3 53/63/3 17/23/3
f 23/31/5 55/65/5 54/64/5 19/26/5
f 21/28/6 56/66/6 55/65/6 23/31/6
f 17/23/2 53/63/2 56/66/2 21/28/2
f 57/67/1 58/68/1 59/69/1 60/70/1
f 18/24/3 58/68/3 57/67/3 20/27/3
f 22/29/2 59/69/2 58/68/2 18/24/2
f 24/32/6 60/70/6 59/69/6 22/29/6
f 20/27/5 57/67/5 60/70/5 24/32/5
f 61/71/2 62/72/2 63/73/2 64/74/2
f 17/23/3 62/72/3 61/71/3 18/25/3
f 21/28/4 63/73/4 62/72/4 17/23/4
f 22/30/6 64/74/6 63/73/6 21/28/6
f 18/25/1 61/71/1 64/74/1 22/30/1
f 11/16/4 65/75/4 68/78/4 15/21/4
f 69/79/4 70/80/4 71/81/4 72/82/4
f 11/16/3 70/80/3 69/79/3 9/13/3
f 15/21/5 71/81/5 70/80/5 11/16/5
f 13/18/6 72/82/6 71/81/6 15/21/6
f 9/13/2 69/79/2 72/82/2 13/18/2
f 73/83/1 74/84/1 75/85/1 76/86/1
f 10/14/3 74/84/3 73/83/3 12/17/3
f 14/19/2 75/85/2 74/84/2 10/14/2
f 16/22/6 76/86/6 75/85/6 14/19/6
f 12/17/5 73/83/5 76/86/5 16/22/5
f 77/87/2 78/88/2 79/89/2 80/90/2
f 9/13/3 78/88/3 77/87/3 10/15/3
f 13/18/4 79/89/4 78/88/4 9/13/4
f 14/20/6 80/90/6 79/89/6 13/18/6
f 10/15/1 77/87/1 80/90/1 14/20/1
f 87/99/5 88/100/5 108/123/5 107/121/5
f 89/101/1 90/102/1 91/103/1 92/104/1
f 82/92/3 90/102/3 89/101/3 84/95/3
f 86/97/2 91/103/2 90/102/2 82/92/2
f 88/100/6 92/104/6 91/103/6 86/97/6
f 84/95/5 89/101/5 92/104/5 88/100/5
f 93/105/2 94/106/2 95/107/2 96/108/2
f 81/91/3 94/106/3 93/105/3 82/93/3
f 85/96/4 95/107/4 94/106/4 81/91/4
f 86/98/6 96/108/6 95/107/6 85/96/6
f 82/93/1 93/105/1 96/108/1 86/98/1
f 97/109/5 98/110/5 99/111/5 100/112/5
f 84/95/3 98/110/3 97/109/3 83/94/3
f 88/100/1 99/111/1 98/110/1 84/95/1
f 87/99/6 100/112/6 99/111/6 88/100/6
f 83/94/4 97/109/4 100/112/4 87/99/4
f 101/113/4 102/114/4 103/115/4 104/116/4
f 83/94/3 102/114/3 101/113/3 81/91/3
f 87/99/5 103/115/5 102/114/5 83/94/5
f 85/96/6 104/116/6 103/115/6 87/99/6
f 81/91/2 101/113/2 104/116/2 85/96/2
f 107/121/6 108/122/6 106/118/6 105/117/6
f 85/96/4 87/99/4 107/121/4 105/117/4
f 88/100/1 86/97/1 106/119/1 108/123/1
f 86/98/2 85/96/2 105/117/2 106/120/2
